<?xml version="1.0" encoding="UTF-8" standalone="no"?>
<svg width="400px" height="400px" viewBox="0 0 400 400" version="1.1" xmlns="http://www.w3.org/2000/svg" xmlns:xlink="http://www.w3.org/1999/xlink">
    <!-- Generator: Sketch 3.6 (26304) - http://www.bohemiancoding.com/sketch -->
    <title>audiobooks</title>
    <desc>Created with Sketch.</desc>
    <defs></defs>
    <g id="Page-1" stroke="none" stroke-width="1" fill="none" fill-rule="evenodd">
        <g id="audiobooks">
            <g id="Bronze---Audiobooks" transform="translate(0.000000, 156.000000)">
                <g id="Layer_1">
                    <g id="Group">
                        <path d="M0.119402985,86.5671642 L0.119402985,0.179104478 L399.58209,0.179104478 L399.58209,86.5671642 L0.119402985,86.5671642 L0.119402985,86.5671642 Z M155.940299,53.2537313 C155.820896,62.6865672 163.462687,71.0447761 173.671642,71.1044776 C183.820896,71.1641791 191.641791,63.1044776 191.641791,53.2537313 C191.641791,42.8059701 182.985075,35.3432836 173.791045,35.3432836 C164.119403,35.3432836 155.761194,43.3432836 155.940299,53.2537313 L155.940299,53.2537313 Z M201.552239,41.9104478 C201.492537,41.9104478 201.432836,41.8507463 201.373134,41.8507463 L201.373134,40.7761194 L201.373134,20.238806 C201.373134,19.641791 201.253731,19.4029851 200.597015,19.4029851 C199.880597,19.4626866 199.164179,19.4029851 198.447761,19.4029851 C197.492537,19.4029851 197.492537,19.4029851 197.492537,20.358209 L197.492537,70.1492537 L197.492537,70.5074627 C197.432836,70.9850746 197.61194,71.1641791 198.089552,71.1641791 C198.925373,71.1641791 199.820896,71.1044776 200.656716,71.1641791 C201.253731,71.2238806 201.373134,70.9850746 201.373134,70.3880597 L201.373134,65.3731343 C201.373134,65.1343284 201.373134,64.8955224 201.432836,64.4179104 C203.880597,67.2238806 206.686567,69.1940299 210.029851,70.2686567 C213.373134,71.2835821 216.776119,71.3432836 220.179104,70.4477612 C223.58209,69.4925373 226.447761,67.641791 228.835821,65.0149254 C234.925373,58.2686567 234.686567,47.641791 228.298507,40.8955224 C225.313433,37.7313433 221.552239,35.880597 217.253731,35.4626866 C210.985075,34.9253731 205.731343,37.1343284 201.552239,41.9104478 L201.552239,41.9104478 Z M131.880597,64.4776119 C131.940299,64.9552239 131.940299,65.1940299 131.940299,65.4925373 L131.940299,70.3880597 C131.940299,70.9850746 132.059701,71.2835821 132.716418,71.2238806 C133.373134,71.1641791 134.029851,71.2238806 134.746269,71.2238806 C135.761194,71.2238806 135.761194,71.2238806 135.761194,70.2089552 L135.761194,20.4776119 L135.761194,20.119403 C135.820896,19.641791 135.641791,19.4029851 135.104478,19.4626866 C134.38806,19.5223881 133.61194,19.4626866 132.895522,19.4626866 C131.940299,19.4626866 131.940299,19.4626866 131.940299,20.4179104 L131.940299,41.0746269 C131.940299,41.3731343 131.880597,41.6716418 131.880597,42.1492537 C128.179104,37.9104478 123.701493,35.5820896 118.208955,35.4626866 C112.716418,35.3432836 108.059701,37.3731343 104.477612,41.4925373 C98.5671642,48.1791045 98.4477612,58.0298507 104.298507,64.8955224 C107.223881,68.358209 111.044776,70.4477612 115.522388,71.0447761 C122.029851,71.761194 127.462687,69.4925373 131.880597,64.4776119 L131.880597,64.4776119 Z M51.761194,64.4179104 C51.880597,64.4776119 51.9402985,64.5373134 52.0597015,64.6567164 C52.0597015,64.9552239 52.119403,65.1940299 52.119403,65.4925373 C52.119403,67.1044776 52.1791045,68.7164179 52.119403,70.2686567 C52.119403,71.0447761 52.358209,71.2238806 53.0746269,71.1641791 C53.7313433,71.1044776 54.3880597,71.1044776 55.1044776,71.1641791 C55.8208955,71.2238806 56,70.9850746 56,70.2686567 L56,53.7910448 C56,52.6567164 55.9402985,51.4626866 55.761194,50.3283582 C54.2686567,40.6567164 44.7761194,33.4925373 34.2686567,35.8208955 C25.4328358,37.7313433 18.8059701,46.4477612 20.6567164,56.5970149 C22.3283582,65.8507463 31.0447761,72.238806 40.5373134,71.0447761 C44.9552239,70.4477612 48.6567164,68.4179104 51.641791,65.0746269 C51.641791,64.8955224 51.7014925,64.6567164 51.761194,64.4179104 L51.761194,64.4179104 Z M321.253731,56.358209 C321.19403,56.358209 321.074627,56.2985075 321.014925,56.2985075 L321.014925,55.3432836 L321.014925,20.5970149 C321.014925,20.358209 321.074627,20.119403 321.014925,19.9402985 C320.895522,19.761194 320.716418,19.4626866 320.537313,19.4626866 C319.820896,19.4029851 319.044776,19.4626866 318.328358,19.4626866 C317.253731,19.4626866 317.253731,19.4626866 317.253731,20.5373134 L317.253731,70.0895522 L317.253731,70.5671642 C317.253731,70.9850746 317.432836,71.1641791 317.850746,71.1641791 C318.686567,71.1641791 319.462687,71.1044776 320.298507,71.1641791 C320.955224,71.2238806 321.074627,70.9253731 321.074627,70.3283582 L321.074627,62.8059701 C321.074627,62.2686567 321.253731,61.8507463 321.61194,61.4925373 C323.462687,59.7014925 325.253731,57.8507463 327.104478,56 C327.343284,55.761194 327.522388,55.4029851 327.761194,55.0447761 C328.179104,55.4626866 328.41791,55.641791 328.656716,55.880597 C333.432836,60.6567164 338.268657,65.4328358 343.044776,70.2686567 C343.701493,70.9253731 344.298507,71.2238806 345.253731,71.1641791 C346.567164,71.1044776 347.940299,71.1641791 349.313433,71.1641791 C349.313433,71.1044776 349.373134,71.0447761 349.373134,70.9850746 C349.19403,70.8656716 348.955224,70.6865672 348.835821,70.5671642 C343.044776,64.7761194 337.19403,58.9253731 331.402985,53.1343284 C330.746269,52.4776119 330.746269,52.4776119 331.402985,51.8208955 C336.656716,46.5671642 341.910448,41.3134328 347.164179,36.0597015 C347.343284,35.880597 347.462687,35.7014925 347.761194,35.4626866 L343.343284,35.4626866 C342.686567,35.4626866 342.208955,35.641791 341.731343,36.119403 C335.223881,42.6865672 328.656716,49.1940299 322.149254,55.761194 C321.791045,55.880597 321.492537,56.119403 321.253731,56.358209 L321.253731,56.358209 Z M255.343284,35.4029851 C245.61194,35.2238806 237.432836,43.4029851 237.432836,53.2537313 C237.432836,62.6268657 244.955224,71.0447761 255.164179,71.1641791 C265.373134,71.2238806 273.074627,63.0447761 273.19403,53.4925373 C273.253731,43.0447761 264.716418,35.2238806 255.343284,35.4029851 L255.343284,35.4029851 Z M295.223881,35.4029851 C285.970149,35.2238806 277.313433,42.8059701 277.313433,53.2537313 C277.313433,63.1641791 285.19403,71.0447761 295.044776,71.1641791 C305.552239,71.2238806 313.074627,62.6268657 313.074627,53.2537313 C313.074627,43.4029851 304.895522,35.2835821 295.223881,35.4029851 L295.223881,35.4029851 Z M91.8208955,64.5373134 C91.880597,64.5970149 91.9402985,64.6567164 92.0597015,64.6567164 C92.0597015,64.8955224 92.119403,65.1343284 92.119403,65.4328358 L92.119403,70.4477612 C92.119403,71.0447761 92.2985075,71.2238806 92.8358209,71.1641791 C93.4925373,71.1044776 94.1492537,71.1641791 94.8656716,71.1641791 C95.9402985,71.1641791 95.9402985,71.1641791 95.9402985,70.1492537 L95.9402985,36.4776119 L95.9402985,36.1791045 C96,35.641791 95.8208955,35.4029851 95.2238806,35.4029851 C94.5074627,35.4626866 93.8507463,35.4029851 93.1343284,35.4029851 C92.119403,35.4029851 92.119403,35.4029851 92.119403,36.358209 L92.119403,53.1343284 C92.119403,53.9104478 92.0597015,54.6865672 91.9402985,55.4626866 C90.7462687,62.9850746 83.641791,68.1791045 76,67.1044776 C69.1343284,66.1492537 64,59.9402985 64.0597015,53.3134328 C64.119403,47.641791 64.0597015,41.9701493 64.0597015,36.358209 C64.0597015,35.4029851 64.0597015,35.4029851 63.0447761,35.4029851 C62.3283582,35.4029851 61.6716418,35.4626866 60.9552239,35.4029851 C60.2985075,35.3432836 60.119403,35.5820896 60.119403,36.238806 L60.119403,53.1940299 C60.119403,54.3283582 60.238806,55.4626866 60.4179104,56.5373134 C62.1492537,65.6716418 70.5671642,71.8208955 79.4626866,71.0447761 C83.5820896,70.6865672 87.1641791,69.0746269 90.1492537,66.2686567 C90.7462687,65.7313433 91.2835821,65.1343284 91.8208955,64.5373134 L91.8208955,64.5373134 Z M351.462687,64.6567164 C351.522388,64.7761194 351.522388,64.7761194 351.522388,64.8358209 C351.880597,65.1940299 352.238806,65.4925373 352.656716,65.8507463 C357.731343,70.2089552 363.58209,72 370.149254,70.8656716 C373.552239,70.3283582 376.298507,68.5970149 377.731343,65.3134328 C379.402985,61.5522388 378.865672,57.0149254 374.865672,54.4477612 C373.671642,53.6716418 372.41791,53.0746269 371.044776,52.6567164 C368.537313,51.9402985 366.029851,51.4626866 363.462687,50.8656716 C361.373134,50.3880597 359.283582,49.7910448 357.552239,48.4776119 C356.776119,47.880597 356.238806,47.1044776 356.059701,46.0895522 C355.641791,43.1044776 357.074627,40.7164179 359.940299,39.7014925 C362.268657,38.8656716 364.656716,38.9850746 367.104478,39.3432836 C370.626866,39.880597 373.552239,41.5522388 376.119403,43.9402985 C376.358209,44.119403 376.597015,44.2985075 376.835821,44.5373134 C377.671642,43.5820896 378.507463,42.6865672 379.343284,41.6716418 C378.507463,40.9552239 377.791045,40.238806 376.955224,39.641791 C373.61194,37.0746269 369.850746,35.641791 365.671642,35.2835821 C363.164179,35.0447761 360.656716,35.2835821 358.268657,36.1791045 C353.61194,37.9701493 351.164179,42.6268657 352.41791,47.3432836 C353.19403,50.1492537 355.223881,51.8208955 357.731343,52.9552239 C360.477612,54.2089552 363.402985,54.6865672 366.328358,55.2238806 C368.537313,55.641791 370.686567,56.238806 372.597015,57.4328358 C373.552239,58.0895522 374.328358,58.8656716 374.567164,60.0597015 C375.044776,63.0447761 373.61194,65.4925373 370.746269,66.5074627 C369.014925,67.1044776 367.164179,67.2238806 365.313433,67.1044776 C362.029851,66.8656716 359.044776,65.7910448 356.41791,63.8208955 C355.522388,63.1641791 354.746269,62.4477612 353.850746,61.6716418 C353.134328,62.8059701 352.298507,63.7014925 351.462687,64.6567164 L351.462687,64.6567164 Z M148.537313,53.3134328 L148.537313,45.6716418 L148.537313,36.119403 C148.537313,35.5820896 148.358209,35.4029851 147.820896,35.4029851 C147.104478,35.4626866 146.447761,35.4029851 145.731343,35.4029851 C144.716418,35.4029851 144.716418,35.4029851 144.716418,36.4776119 L144.716418,70.1492537 L144.716418,70.5671642 C144.656716,70.9850746 144.835821,71.1641791 145.313433,71.1641791 C146.089552,71.1641791 146.865672,71.1044776 147.701493,71.1641791 C148.41791,71.2238806 148.597015,70.9253731 148.597015,70.2686567 C148.537313,64.5970149 148.537313,58.9850746 148.537313,53.3134328 L148.537313,53.3134328 Z M361.552239,17.6119403 C361.492537,17.6119403 361.432836,17.5522388 361.373134,17.5522388 C361.313433,17.1940299 361.313433,16.8358209 361.253731,16.4776119 C361.253731,16.119403 361.313433,15.7014925 360.776119,15.7014925 C360.238806,15.7014925 360.358209,16.119403 360.358209,16.4179104 L360.358209,27.1641791 C360.358209,27.5223881 360.298507,27.9402985 360.895522,27.9402985 C361.492537,27.9402985 361.373134,27.5223881 361.373134,27.2238806 L361.373134,19.8208955 C361.373134,18.0298507 362.626866,16.5970149 364.41791,16.2985075 C365.910448,16.0597015 367.044776,16.7761194 367.462687,18.1492537 C367.641791,18.8059701 367.761194,19.5820896 367.761194,20.238806 C367.820896,22.5671642 367.761194,24.8955224 367.761194,27.1641791 C367.761194,27.5223881 367.701493,27.880597 368.238806,27.880597 C368.776119,27.880597 368.716418,27.5223881 368.716418,27.2238806 L368.716418,21.0149254 C368.716418,20.358209 368.716418,19.7014925 368.835821,19.1044776 C369.074627,17.4925373 370.328358,16.358209 372,16.238806 C373.492537,16.1791045 374.686567,17.0746269 374.985075,18.6865672 C375.104478,19.2835821 375.164179,19.880597 375.164179,20.4776119 L375.164179,27.3432836 C375.164179,27.7014925 375.164179,28.0597015 375.641791,27.9402985 C375.820896,27.880597 376.119403,27.5820896 376.119403,27.4029851 C376.119403,24.5970149 376.179104,21.7910448 376.119403,19.0447761 C376.059701,17.3731343 374.925373,16 373.492537,15.641791 C371.462687,15.1044776 369.61194,15.9402985 368.656716,17.8507463 C368.597015,17.9701493 368.477612,18.1492537 368.358209,18.3880597 C367.880597,16.7164179 367.044776,15.5223881 365.253731,15.5223881 C363.641791,15.4029851 362.567164,16.358209 361.552239,17.6119403 L361.552239,17.6119403 Z M357.134328,21.7910448 L357.134328,21.1343284 C357.014925,17.9104478 355.104478,15.7014925 352.298507,15.4626866 C349.731343,15.2238806 347.343284,16.4179104 346.507463,18.9850746 C346.029851,20.4179104 345.910448,21.9104478 346.208955,23.4029851 C346.567164,25.3731343 347.462687,26.9253731 349.432836,27.641791 C351.522388,28.4179104 353.552239,28.238806 355.283582,26.7462687 C356.776119,25.4328358 357.134328,23.641791 357.134328,21.7910448 L357.134328,21.7910448 Z M343.940299,16.7761194 C341.373134,14.4477612 337.134328,15.2238806 335.58209,18.2089552 C334.80597,19.761194 334.746269,21.4925373 334.925373,23.1641791 C335.223881,26.0895522 337.432836,28.119403 340.298507,28 C341.61194,27.9402985 342.865672,27.5820896 343.880597,26.6268657 C344,26.5074627 343.940299,26.2686567 344,26.0895522 C343.820896,26.0895522 343.641791,26.0298507 343.462687,26.0298507 C343.343284,26.0895522 343.223881,26.2089552 343.044776,26.3283582 C340.716418,28 337.552239,27.2835821 336.477612,24.7164179 C336.119403,23.9402985 335.940299,23.0447761 335.880597,22.1492537 C335.761194,20.5373134 336,18.9253731 337.074627,17.6119403 C338.447761,15.9402985 340.955224,15.641791 342.985075,16.8955224 C343.343284,17.1940299 343.701493,17.4328358 343.940299,16.7761194 L343.940299,16.7761194 Z M332.238806,26.9850746 C332.238806,26.3880597 331.761194,25.9104478 331.223881,25.9104478 C330.686567,25.9104478 330.149254,26.4477612 330.208955,27.0447761 C330.208955,27.641791 330.686567,28.0597015 331.223881,28.0597015 C331.820896,28 332.238806,27.5223881 332.238806,26.9850746 L332.238806,26.9850746 Z" id="Shape" fill="#FFFFFF"></path>
                        <path d="M155.940299,53.2537313 C155.820896,43.3432836 164.179104,35.3432836 173.791045,35.3432836 C183.044776,35.3432836 191.641791,42.8059701 191.641791,53.2537313 C191.641791,63.0447761 183.761194,71.1641791 173.671642,71.1044776 C163.402985,71.0447761 155.820896,62.6865672 155.940299,53.2537313 L155.940299,53.2537313 Z M170.149254,45.9701493 C169.074627,46.0895522 168.477612,46.8059701 168.477612,48.0597015 L168.477612,58.4477612 C168.477612,60.1791045 169.791045,60.8955224 171.283582,60.0597015 C174.328358,58.3283582 177.373134,56.5373134 180.358209,54.8059701 C181.791045,53.9701493 181.791045,52.5373134 180.358209,51.7014925 C177.313433,49.9104478 174.268657,48.1791045 171.164179,46.3880597 C170.865672,46.2089552 170.507463,46.1492537 170.149254,45.9701493 L170.149254,45.9701493 Z" id="Shape" fill="#000000"></path>
                        <path d="M201.552239,41.9104478 C205.731343,37.1343284 210.985075,34.9253731 217.253731,35.4626866 C221.61194,35.880597 225.313433,37.7313433 228.298507,40.8955224 C234.686567,47.5820896 234.925373,58.2686567 228.835821,65.0149254 C226.447761,67.641791 223.58209,69.4925373 220.179104,70.4477612 C216.776119,71.4029851 213.432836,71.3432836 210.029851,70.2686567 C206.626866,69.1940299 203.820896,67.2835821 201.432836,64.4179104 C201.432836,64.8358209 201.373134,65.1343284 201.373134,65.3731343 L201.373134,70.3880597 C201.373134,70.9253731 201.253731,71.1641791 200.656716,71.1641791 C199.820896,71.1044776 198.925373,71.1044776 198.089552,71.1641791 C197.61194,71.1641791 197.432836,70.9850746 197.492537,70.5074627 L197.492537,70.1492537 L197.492537,20.358209 C197.492537,19.4029851 197.492537,19.4029851 198.447761,19.4029851 C199.164179,19.4029851 199.880597,19.4626866 200.597015,19.4029851 C201.253731,19.3432836 201.373134,19.5820896 201.373134,20.238806 L201.373134,40.7761194 L201.373134,41.8507463 C201.432836,41.8507463 201.492537,41.9104478 201.552239,41.9104478 L201.552239,41.9104478 Z M201.373134,53.1940299 C201.19403,60.8358209 207.701493,67.2238806 215.223881,67.2835821 C222.746269,67.3432836 229.373134,61.1940299 229.432836,53.3134328 C229.432836,45.5522388 223.104478,39.2238806 215.402985,39.2238806 C207.223881,39.2238806 201.253731,46.0298507 201.373134,53.1940299 L201.373134,53.1940299 Z" id="Shape" fill="#000000"></path>
                        <path d="M131.880597,64.4776119 C127.402985,69.4925373 122.029851,71.761194 115.522388,70.9850746 C110.985075,70.4477612 107.223881,68.2985075 104.298507,64.8358209 C98.5074627,57.9701493 98.5671642,48.119403 104.477612,41.4328358 C108.119403,37.3134328 112.716418,35.2835821 118.208955,35.4029851 C123.701493,35.5223881 128.119403,37.8507463 131.880597,42.0895522 C131.940299,41.5522388 131.940299,41.3134328 131.940299,41.0149254 L131.940299,20.358209 C131.940299,19.4029851 131.940299,19.4029851 132.895522,19.4029851 L135.104478,19.4029851 C135.641791,19.4029851 135.820896,19.5820896 135.761194,20.0597015 L135.761194,20.4179104 L135.761194,70.1492537 C135.761194,71.1641791 135.761194,71.1641791 134.746269,71.1641791 C134.089552,71.1641791 133.432836,71.1044776 132.716418,71.1641791 C132.059701,71.2238806 131.880597,70.9253731 131.940299,70.3283582 C132,68.7164179 131.940299,67.1044776 131.940299,65.4328358 C132,65.1940299 131.940299,64.8955224 131.880597,64.4776119 L131.880597,64.4776119 Z M117.910448,67.2835821 C124.716418,67.4626866 131.880597,61.9701493 131.940299,53.3134328 C132,45.3134328 125.552239,39.2238806 117.910448,39.2238806 C110.328358,39.2238806 103.820896,45.3134328 103.880597,53.3134328 C103.880597,61.5522388 110.746269,67.4029851 117.910448,67.2835821 L117.910448,67.2835821 Z" id="Shape" fill="#000000"></path>
                        <path d="M51.761194,64.4179104 C51.7014925,64.5970149 51.641791,64.8358209 51.4626866,65.0149254 C48.4776119,68.358209 44.7761194,70.3880597 40.358209,70.9850746 C30.8656716,72.238806 22.1492537,65.7910448 20.4776119,56.5373134 C18.6268657,46.4477612 25.2537313,37.7313433 34.0895522,35.761194 C44.6567164,33.4328358 54.0895522,40.5970149 55.5820896,50.2686567 C55.761194,51.4029851 55.8208955,52.5970149 55.8208955,53.7313433 L55.8208955,70.2089552 C55.8208955,70.9253731 55.641791,71.1641791 54.9253731,71.1044776 C54.2686567,71.0447761 53.6119403,71.0447761 52.8955224,71.1044776 C52.1791045,71.1641791 51.9402985,70.9253731 51.9402985,70.2089552 C52,68.5970149 51.9402985,66.9850746 51.9402985,65.4328358 C51.9402985,65.1343284 51.880597,64.8955224 51.880597,64.5970149 C52,64.5970149 51.880597,64.5373134 51.761194,64.4179104 L51.761194,64.4179104 Z M38.0298507,67.2835821 C45.0746269,67.4626866 52.119403,61.7313433 52.119403,53.2537313 C52.119403,45.1940299 45.6119403,39.2238806 38.0895522,39.2238806 C30.5671642,39.2238806 24,45.1940299 24,53.2537313 C24.0597015,61.4925373 30.9253731,67.4029851 38.0298507,67.2835821 L38.0298507,67.2835821 Z" id="Shape" fill="#000000"></path>
                        <path d="M321.253731,56.358209 C321.492537,56.119403 321.731343,55.9402985 321.970149,55.7014925 C328.477612,49.1940299 335.044776,42.6268657 341.552239,36.0597015 C342.029851,35.5820896 342.507463,35.4029851 343.164179,35.4029851 C344.597015,35.4626866 346.029851,35.4029851 347.58209,35.4029851 C347.343284,35.7014925 347.164179,35.880597 346.985075,36 C341.731343,41.2537313 336.477612,46.5074627 331.223881,51.761194 C330.567164,52.4179104 330.567164,52.4179104 331.223881,53.0746269 C337.014925,58.8656716 342.865672,64.7164179 348.656716,70.5074627 C348.835821,70.6865672 349.014925,70.8059701 349.19403,70.9253731 C349.19403,70.9850746 349.134328,71.0447761 349.134328,71.1044776 C347.761194,71.1044776 346.447761,71.0447761 345.074627,71.1044776 C344.179104,71.1641791 343.522388,70.8656716 342.865672,70.2089552 C338.089552,65.3731343 333.313433,60.5970149 328.477612,55.8208955 C328.238806,55.5820896 328.059701,55.4029851 327.58209,54.9850746 C327.343284,55.3432836 327.164179,55.7014925 326.925373,55.9402985 C325.134328,57.7910448 323.283582,59.5820896 321.432836,61.4328358 C321.074627,61.7910448 320.895522,62.2089552 320.895522,62.7462687 L320.895522,70.2686567 C320.895522,70.8656716 320.776119,71.1641791 320.119403,71.1044776 C319.283582,71.0447761 318.507463,71.0447761 317.671642,71.1044776 C317.253731,71.1044776 317.074627,70.9253731 317.074627,70.5074627 L317.074627,70.0298507 L317.074627,20.4776119 C317.074627,19.4029851 317.074627,19.4029851 318.149254,19.4029851 C318.865672,19.4029851 319.641791,19.3432836 320.358209,19.4029851 C320.537313,19.4029851 320.776119,19.7014925 320.835821,19.880597 C320.895522,20.0597015 320.835821,20.2985075 320.835821,20.5373134 L320.835821,55.2835821 L320.835821,56.238806 C321.134328,56.2985075 321.19403,56.2985075 321.253731,56.358209 L321.253731,56.358209 Z" id="Shape" fill="#000000"></path>
                        <path d="M255.343284,35.4029851 C264.716418,35.2238806 273.313433,43.0447761 273.19403,53.4328358 C273.074627,62.9850746 265.432836,71.1641791 255.164179,71.1044776 C244.895522,71.0447761 237.432836,62.5671642 237.432836,53.1940299 C237.432836,43.4626866 245.61194,35.2238806 255.343284,35.4029851 L255.343284,35.4029851 Z M255.283582,67.2835821 C262.447761,67.4029851 269.373134,61.6119403 269.313433,53.2537313 C269.313433,45.0746269 262.686567,39.2238806 255.283582,39.2238806 C247.58209,39.2238806 241.19403,45.5522388 241.19403,53.1940299 C241.253731,61.4925373 248.119403,67.4029851 255.283582,67.2835821 L255.283582,67.2835821 Z" id="Shape" fill="#000000"></path>
                        <path d="M295.223881,35.4029851 C304.835821,35.2238806 313.074627,43.4029851 313.074627,53.2537313 C313.074627,62.5671642 305.552239,71.2238806 295.044776,71.1641791 C285.19403,71.1044776 277.313433,63.2238806 277.313433,53.2537313 C277.313433,42.8059701 285.970149,35.2238806 295.223881,35.4029851 L295.223881,35.4029851 Z M295.164179,67.2835821 C302.507463,67.4626866 309.253731,61.3134328 309.253731,53.3134328 C309.253731,45.6119403 302.925373,39.2835821 295.283582,39.2238806 C287.58209,39.2238806 281.313433,45.4328358 281.19403,53.0149254 C281.014925,60.7761194 287.522388,67.4029851 295.164179,67.2835821 L295.164179,67.2835821 Z" id="Shape" fill="#000000"></path>
                        <path d="M91.8208955,64.5373134 C91.2835821,65.1343284 90.8059701,65.7313433 90.2089552,66.2686567 C87.1641791,69.0746269 83.641791,70.6268657 79.5223881,71.0447761 C70.6268657,71.880597 62.2089552,65.7313433 60.4776119,56.5373134 C60.238806,55.4626866 60.1791045,54.3283582 60.1791045,53.1940299 C60.119403,47.5223881 60.1791045,41.8507463 60.1791045,36.238806 C60.1791045,35.5820896 60.358209,35.3432836 61.0149254,35.4029851 C61.7313433,35.4626866 62.3880597,35.4029851 63.1044776,35.4029851 C64.119403,35.4029851 64.119403,35.4029851 64.119403,36.358209 C64.119403,42.0298507 64.1791045,47.7014925 64.119403,53.3134328 C64.0597015,59.9402985 69.1940299,66.0895522 76.0597015,67.1044776 C83.7014925,68.1791045 90.8059701,62.9850746 92,55.4626866 C92.119403,54.6865672 92.1791045,53.9104478 92.1791045,53.1343284 L92.1791045,36.358209 C92.1791045,35.4029851 92.1791045,35.4029851 93.1940299,35.4029851 C93.9104478,35.4029851 94.5671642,35.4626866 95.2835821,35.4029851 C95.880597,35.3432836 96.0597015,35.641791 96,36.1791045 L96,36.4776119 L96,70.1492537 C96,71.1641791 96,71.1641791 94.9253731,71.1641791 C94.2686567,71.1641791 93.6119403,71.1044776 92.8955224,71.1641791 C92.358209,71.2238806 92.119403,71.0447761 92.1791045,70.4477612 C92.238806,68.7761194 92.1791045,67.1044776 92.1791045,65.4328358 C92.1791045,65.1940299 92.1791045,64.9552239 92.119403,64.6567164 C91.9402985,64.6567164 91.880597,64.5970149 91.8208955,64.5373134 L91.8208955,64.5373134 Z" id="Shape" fill="#000000"></path>
                        <path d="M351.462687,64.6567164 C352.298507,63.7014925 353.134328,62.8059701 353.970149,61.8507463 C354.865672,62.5671642 355.641791,63.3432836 356.537313,64 C359.164179,65.9701493 362.149254,67.0447761 365.432836,67.2835821 C367.283582,67.4029851 369.074627,67.3432836 370.865672,66.6865672 C373.731343,65.6716418 375.164179,63.2238806 374.686567,60.238806 C374.507463,59.0447761 373.731343,58.2686567 372.716418,57.6119403 C370.80597,56.358209 368.597015,55.8208955 366.447761,55.4029851 C363.522388,54.8059701 360.597015,54.3880597 357.850746,53.1343284 C355.343284,51.9402985 353.253731,50.3283582 352.537313,47.5223881 C351.283582,42.8059701 353.731343,38.0895522 358.38806,36.358209 C360.776119,35.4626866 363.223881,35.2238806 365.791045,35.4626866 C369.970149,35.8208955 373.791045,37.2537313 377.074627,39.8208955 C377.850746,40.4179104 378.626866,41.1343284 379.462687,41.8507463 C378.567164,42.8059701 377.791045,43.761194 376.955224,44.7164179 C376.716418,44.4776119 376.477612,44.2985075 376.238806,44.119403 C373.671642,41.6716418 370.686567,40.0597015 367.223881,39.5223881 C364.835821,39.1641791 362.447761,39.0447761 360.059701,39.880597 C357.19403,40.8955224 355.761194,43.2835821 356.179104,46.2686567 C356.298507,47.2835821 356.895522,48.0597015 357.671642,48.6567164 C359.402985,50.0298507 361.492537,50.5671642 363.58209,51.0447761 C366.089552,51.641791 368.656716,52.119403 371.164179,52.8358209 C372.477612,53.1940299 373.791045,53.8507463 374.985075,54.6268657 C378.985075,57.1940299 379.522388,61.7313433 377.850746,65.4925373 C376.41791,68.7761194 373.61194,70.4477612 370.268657,71.0447761 C363.641791,72.119403 357.791045,70.3880597 352.776119,66.0298507 C352.41791,65.7313433 352.059701,65.3731343 351.641791,65.0149254 C351.522388,64.7761194 351.522388,64.7761194 351.462687,64.6567164 L351.462687,64.6567164 Z" id="Shape" fill="#000000"></path>
                        <path d="M148.537313,53.3134328 L148.537313,70.2686567 C148.537313,70.9253731 148.358209,71.2238806 147.641791,71.1641791 C146.865672,71.1044776 146.089552,71.1044776 145.253731,71.1641791 C144.835821,71.1641791 144.656716,70.9850746 144.656716,70.5671642 L144.656716,70.1492537 L144.656716,36.4776119 C144.656716,35.4029851 144.656716,35.4029851 145.671642,35.4029851 L147.761194,35.4029851 C148.298507,35.4029851 148.477612,35.5820896 148.477612,36.119403 L148.477612,45.6716418 C148.537313,48.1791045 148.537313,50.7462687 148.537313,53.3134328 L148.537313,53.3134328 Z" id="Shape" fill="#000000"></path>
                        <path d="M361.552239,17.6119403 C362.507463,16.358209 363.641791,15.4029851 365.313433,15.4029851 C367.104478,15.4626866 367.940299,16.5970149 368.41791,18.2686567 C368.597015,18.0298507 368.656716,17.8507463 368.716418,17.7313433 C369.671642,15.8208955 371.522388,14.9850746 373.552239,15.5223881 C374.985075,15.880597 376.119403,17.2537313 376.179104,18.9253731 C376.238806,21.7313433 376.238806,24.5373134 376.179104,27.2835821 C376.179104,27.4626866 375.880597,27.761194 375.701493,27.8208955 C375.223881,27.9402985 375.223881,27.5820896 375.223881,27.2238806 L375.223881,20.358209 C375.223881,19.761194 375.164179,19.1641791 375.044776,18.5671642 C374.686567,17.0149254 373.492537,16.0597015 372.059701,16.119403 C370.38806,16.1791045 369.134328,17.3134328 368.895522,18.9850746 C368.776119,19.641791 368.776119,20.238806 368.776119,20.8955224 L368.776119,27.1044776 C368.776119,27.4626866 368.835821,27.761194 368.298507,27.761194 C367.761194,27.761194 367.820896,27.4029851 367.820896,27.0447761 L367.820896,20.119403 C367.820896,19.4029851 367.701493,18.6865672 367.522388,18.0298507 C367.104478,16.5970149 365.970149,15.9402985 364.477612,16.1791045 C362.686567,16.4179104 361.432836,17.8507463 361.432836,19.7014925 L361.432836,27.1044776 C361.432836,27.4626866 361.552239,27.8208955 360.955224,27.8208955 C360.358209,27.8208955 360.41791,27.4626866 360.41791,27.0447761 L360.41791,16.2985075 C360.41791,16 360.298507,15.5820896 360.835821,15.5820896 C361.373134,15.5820896 361.313433,16 361.313433,16.358209 C361.313433,16.7164179 361.373134,17.0746269 361.432836,17.4328358 C361.432836,17.5522388 361.492537,17.5522388 361.552239,17.6119403 L361.552239,17.6119403 Z" id="Shape" fill="#000000"></path>
                        <path d="M357.134328,21.7910448 C357.134328,23.641791 356.776119,25.4328358 355.283582,26.6865672 C353.552239,28.1791045 351.522388,28.358209 349.432836,27.5820896 C347.462687,26.8656716 346.567164,25.3134328 346.208955,23.3432836 C345.910448,21.8507463 346.029851,20.358209 346.507463,18.9253731 C347.343284,16.358209 349.731343,15.1641791 352.298507,15.4029851 C355.104478,15.641791 357.014925,17.8507463 357.134328,21.0746269 C357.134328,21.3731343 357.134328,21.5522388 357.134328,21.7910448 L357.134328,21.7910448 Z M356.119403,21.7910448 C356.179104,21.7910448 356.238806,21.7313433 356.298507,21.7313433 C356,20.5970149 355.820896,19.4626866 355.402985,18.3880597 C354.746269,16.7761194 353.313433,16.1791045 351.641791,16.1791045 C349.970149,16.1791045 348.537313,16.8955224 347.820896,18.5074627 C346.865672,20.5970149 346.865672,22.8059701 347.761194,24.8955224 C348.895522,27.4626866 352.656716,28.119403 354.626866,26.0895522 C355.820896,24.8955224 356.059701,23.3432836 356.119403,21.7910448 L356.119403,21.7910448 Z" id="Shape" fill="#000000"></path>
                        <path d="M343.940299,16.7761194 C343.701493,17.4328358 343.402985,17.2537313 342.985075,17.0149254 C340.955224,15.761194 338.507463,16 337.074627,17.7313433 C336,19.0447761 335.761194,20.6567164 335.880597,22.2686567 C335.940299,23.1044776 336.119403,24.0597015 336.477612,24.8358209 C337.552239,27.4029851 340.716418,28.119403 343.044776,26.4477612 C343.164179,26.3283582 343.283582,26.2089552 343.462687,26.1492537 C343.641791,26.0895522 343.820896,26.1492537 344,26.2089552 C343.940299,26.3880597 344,26.6268657 343.880597,26.7462687 C342.865672,27.7014925 341.61194,28.0597015 340.298507,28.119403 C337.432836,28.238806 335.223881,26.2089552 334.925373,23.2835821 C334.746269,21.6119403 334.80597,19.880597 335.58209,18.3283582 C337.134328,15.1641791 341.373134,14.4477612 343.940299,16.7761194 L343.940299,16.7761194 Z" id="Shape" fill="#000000"></path>
                        <path d="M332.238806,26.9850746 C332.238806,27.5820896 331.820896,28.0597015 331.223881,28.0597015 C330.626866,28.0597015 330.208955,27.641791 330.208955,27.0447761 C330.208955,26.4477612 330.686567,25.9104478 331.223881,25.9104478 C331.761194,25.8507463 332.238806,26.3880597 332.238806,26.9850746 L332.238806,26.9850746 Z" id="Shape" fill="#000000"></path>
                        <path d="M170.149254,45.9701493 C170.507463,46.0895522 170.865672,46.2089552 171.164179,46.3880597 C174.208955,48.119403 177.253731,49.9104478 180.358209,51.7014925 C181.791045,52.5373134 181.791045,53.9701493 180.358209,54.8059701 C177.313433,56.5970149 174.328358,58.3283582 171.283582,60.0597015 C169.791045,60.9552239 168.477612,60.1791045 168.477612,58.4477612 L168.477612,48.0597015 C168.477612,46.8059701 169.134328,46.0895522 170.149254,45.9701493 L170.149254,45.9701493 Z" id="Shape" fill="#FFFFFF"></path>
                        <path d="M201.373134,53.1940299 C201.19403,46.0298507 207.223881,39.2238806 215.402985,39.2238806 C223.164179,39.2238806 229.492537,45.5522388 229.432836,53.3134328 C229.432836,61.2537313 222.746269,67.4029851 215.223881,67.2835821 C207.701493,67.2238806 201.19403,60.8358209 201.373134,53.1940299 L201.373134,53.1940299 Z" id="Shape" fill="#FFFFFF"></path>
                        <path d="M117.910448,67.2835821 C110.746269,67.4029851 103.880597,61.5522388 103.880597,53.3134328 C103.880597,45.3134328 110.328358,39.2238806 117.910448,39.2238806 C125.552239,39.2238806 132,45.3134328 131.940299,53.3134328 C131.880597,61.9104478 124.716418,67.4029851 117.910448,67.2835821 L117.910448,67.2835821 Z" id="Shape" fill="#FFFFFF"></path>
                        <path d="M38.0298507,67.2835821 C30.8656716,67.4029851 24,61.5522388 24,53.2537313 C24,45.1940299 30.5671642,39.1641791 38.0895522,39.2238806 C45.6119403,39.2238806 52.119403,45.1940299 52.119403,53.2537313 C52.119403,61.7313433 45.1343284,67.4029851 38.0298507,67.2835821 L38.0298507,67.2835821 Z" id="Shape" fill="#FFFFFF"></path>
                        <path d="M255.283582,67.2835821 C248.119403,67.4029851 241.253731,61.4925373 241.253731,53.1940299 C241.253731,45.4925373 247.641791,39.1641791 255.343284,39.2238806 C262.746269,39.2238806 269.373134,45.0746269 269.373134,53.2537313 C269.373134,61.6119403 262.447761,67.4029851 255.283582,67.2835821 L255.283582,67.2835821 Z" id="Shape" fill="#FFFFFF"></path>
                        <path d="M295.164179,67.2835821 C287.58209,67.4029851 281.074627,60.8358209 281.19403,53.0149254 C281.313433,45.4328358 287.58209,39.2238806 295.283582,39.2238806 C302.985075,39.2238806 309.313433,45.6119403 309.253731,53.3134328 C309.253731,61.3134328 302.507463,67.4029851 295.164179,67.2835821 L295.164179,67.2835821 Z" id="Shape" fill="#FFFFFF"></path>
                        <path d="M356.119403,21.7910448 C356.059701,23.3432836 355.820896,24.8955224 354.626866,26.0895522 C352.656716,28.119403 348.895522,27.4626866 347.761194,24.8955224 C346.80597,22.8059701 346.865672,20.5970149 347.820896,18.5074627 C348.537313,16.8955224 349.910448,16.1791045 351.641791,16.1791045 C353.313433,16.1791045 354.746269,16.7761194 355.402985,18.3880597 C355.820896,19.4626866 356,20.5970149 356.298507,21.7313433 C356.238806,21.7313433 356.179104,21.7910448 356.119403,21.7910448 L356.119403,21.7910448 Z" id="Shape" fill="#FFFFFF"></path>
                    </g>
                </g>
            </g>
        </g>
    </g>
</svg>